<?xml version="1.0" standalone="no"?>
<!DOCTYPE svg PUBLIC "-//W3C//DTD SVG 20010904//EN"
 "http://www.w3.org/TR/2001/REC-SVG-20010904/DTD/svg10.dtd">
<svg version="1.0" xmlns="http://www.w3.org/2000/svg"
 width="647.000000pt" height="647.000000pt" viewBox="0 0 647.000000 647.000000"
 preserveAspectRatio="xMidYMid meet">
<metadata>
Created by potrace 1.14, written by Peter Selinger 2001-2017
</metadata>
<g transform="translate(0.000000,647.000000) scale(0.100000,-0.100000)"
fill="#000000" stroke="none">
<path d="M935 5137 c-16 -12 -36 -29 -43 -39 -7 -10 -19 -18 -27 -18 -8 0 -20
-8 -27 -18 -7 -9 -29 -29 -48 -43 -19 -15 -48 -38 -63 -53 -15 -14 -31 -26
-35 -26 -4 0 -32 -22 -62 -49 -30 -27 -58 -47 -62 -45 -4 3 -8 1 -8 -5 0 -7
-99 -90 -198 -166 -7 -5 -23 -20 -34 -32 -12 -13 -26 -23 -30 -23 -5 0 -21
-11 -36 -25 -48 -45 -186 -155 -194 -155 -4 0 -8 -85 -8 -190 l0 -190 3170 0
c3012 0 3170 1 3171 18 0 9 1 91 1 180 0 150 -8 203 -26 174 -3 -6 -20 -7 -38
-3 -18 4 -45 4 -59 0 -15 -3 -32 -3 -39 1 -7 4 -25 4 -40 0 -15 -4 -33 -4 -40
0 -7 4 -25 4 -40 0 -15 -4 -33 -4 -40 0 -7 5 -23 5 -34 0 -12 -4 -30 -4 -41 0
-11 4 -34 4 -51 0 -18 -4 -38 -4 -45 1 -7 4 -20 4 -28 0 -9 -5 -25 -5 -35 -1
-11 3 -34 4 -50 0 -17 -3 -50 -3 -74 0 -23 4 -45 4 -47 0 -2 -4 -24 -4 -47 -1
-24 4 -56 4 -73 1 -16 -3 -49 -3 -72 1 -24 3 -43 2 -43 -3 0 -5 -7 -5 -17 0
-9 5 -29 6 -44 2 -15 -5 -30 -6 -32 -3 -7 6 -146 7 -153 1 -2 -3 -23 -2 -47 1
-23 4 -55 4 -72 1 -16 -3 -49 -3 -72 1 -24 3 -43 2 -43 -3 0 -5 -7 -5 -17 0
-9 5 -29 6 -44 2 -15 -5 -30 -6 -32 -3 -5 4 -129 7 -152 2 -5 -1 -14 -1 -19 0
-4 1 -34 1 -65 1 -77 -1 -122 0 -146 4 -11 2 -29 0 -40 -4 -11 -4 -29 -4 -40
0 -11 4 -34 4 -52 -1 -18 -4 -35 -3 -38 2 -3 4 -16 5 -28 0 -12 -5 -31 -5 -42
-1 -11 4 -34 4 -51 0 -18 -4 -38 -4 -45 1 -7 4 -20 4 -28 0 -9 -5 -25 -5 -36
-1 -11 4 -34 4 -52 -1 -18 -4 -35 -3 -38 2 -3 4 -16 5 -28 0 -12 -5 -31 -5
-41 -1 -11 4 -34 4 -50 0 -17 -3 -50 -3 -74 0 -23 4 -45 4 -47 0 -2 -4 -24 -4
-47 -1 -24 4 -56 4 -73 1 -16 -3 -49 -3 -72 1 -24 3 -43 2 -43 -3 0 -5 -7 -5
-17 0 -9 5 -29 6 -44 2 -15 -5 -30 -6 -32 -3 -7 6 -146 7 -153 1 -2 -3 -23 -2
-47 1 -23 4 -55 4 -72 1 -16 -3 -49 -3 -72 1 -24 3 -43 2 -43 -3 0 -5 -9 -4
-19 2 -11 5 -29 7 -40 2 -11 -4 -56 -5 -101 -2 -45 3 -84 2 -86 -1 -2 -3 -23
-3 -46 1 -24 3 -54 3 -68 0 -13 -3 -46 -3 -72 0 -27 4 -48 3 -48 -2 0 -4 -10
-4 -22 1 -13 5 -31 6 -40 2 -9 -3 -54 -4 -99 -1 -44 3 -83 2 -85 -1 -2 -3 -23
-3 -46 0 -24 4 -56 4 -73 1 -16 -3 -49 -3 -73 1 -23 3 -45 2 -47 -2 -3 -4 -18
-4 -33 0 -15 4 -38 5 -52 1 -14 -4 -35 -3 -47 1 -14 5 -23 5 -23 -1 0 -6 -9
-6 -22 -1 -13 5 -31 6 -40 2 -9 -3 -54 -4 -99 -1 -44 3 -83 2 -85 -1 -2 -4
-16 -4 -31 -2 -16 2 -39 4 -53 4 -103 -1 -133 0 -141 5 -5 3 -9 2 -9 -3 0 -4
-24 -7 -52 -5 -29 2 -64 2 -78 2 -14 -1 -31 -1 -37 -1 -22 2 -46 2 -130 1 -45
-1 -86 0 -91 4 -5 3 -24 1 -41 -4 -27 -8 -33 -6 -39 10 -4 10 -7 177 -6 369 0
193 0 351 0 351 -1 0 -14 -10 -31 -23z"/>
<path d="M1868 3832 c-15 -3 -16 -51 -17 -469 -1 -257 -3 -468 -6 -471 -2 -3
0 -12 5 -22 6 -12 20 -16 47 -15 52 1 60 8 57 47 -4 54 10 65 35 29 14 -19 49
-43 88 -62 54 -25 73 -29 116 -25 72 7 91 13 155 50 29 17 91 84 84 91 -3 3 0
5 6 5 10 0 28 55 24 73 -1 4 2 7 6 7 11 0 13 9 17 112 3 69 -1 101 -18 155
-11 37 -27 74 -33 80 -7 7 -21 23 -31 35 -48 59 -129 88 -224 82 -58 -3 -130
-24 -123 -35 3 -5 -2 -9 -10 -9 -9 0 -16 -4 -16 -10 0 -5 -7 -10 -15 -10 -8 0
-15 -4 -15 -8 0 -5 -6 -16 -13 -26 -11 -15 -13 16 -13 188 1 177 -1 206 -14
207 -8 0 -29 1 -46 2 -17 1 -38 1 -46 -1z m358 -403 c3 -5 14 -9 24 -9 10 0
25 -9 33 -20 8 -11 17 -17 20 -13 4 3 7 -1 7 -10 0 -9 4 -17 10 -17 9 0 35
-77 32 -92 -1 -5 2 -8 7 -8 5 0 7 -33 6 -72 -4 -87 -32 -160 -78 -200 -40 -37
-64 -42 -149 -35 -53 5 -74 11 -88 26 -9 12 -22 21 -27 21 -5 0 -18 21 -28 47
-21 51 -29 198 -12 221 6 8 5 12 -4 12 -10 0 -10 3 -1 12 7 7 12 19 12 28 0 9
18 35 40 59 22 23 40 40 40 37 0 -3 14 1 30 8 36 15 118 18 126 5z"/>
<path d="M2640 3830 c-9 -6 -19 -969 -10 -971 22 -5 100 -4 101 0 1 3 3 24 5
46 1 22 3 44 3 49 1 5 13 -4 29 -20 34 -38 84 -73 108 -77 11 -1 24 -5 29 -8
17 -9 104 -11 117 -3 13 9 33 14 56 16 6 1 12 5 12 9 0 4 10 11 22 15 24 7 98
77 98 93 0 5 6 16 13 23 30 29 45 105 43 210 -2 103 -8 125 -59 214 -15 25
-47 58 -47 48 0 -4 -8 3 -19 14 -22 26 -109 50 -165 45 -112 -8 -133 -17 -193
-80 l-33 -34 0 205 0 206 -22 1 c-13 0 -36 2 -51 3 -15 1 -32 -1 -37 -4z m381
-406 c41 -15 94 -68 89 -90 -1 -4 4 -10 10 -14 17 -11 27 -67 24 -147 -2 -83
-26 -141 -77 -185 -38 -33 -78 -42 -155 -35 -31 4 -61 6 -66 7 -5 0 -6 3 -3 7
4 3 -3 11 -15 17 -11 6 -26 20 -32 31 -6 11 -14 22 -18 25 -27 21 -38 178 -17
253 20 72 85 135 132 128 4 0 7 4 7 9 0 16 70 12 121 -6z"/>
<path d="M5429 3830 l-26 -5 1 -485 1 -485 48 0 c26 0 47 2 48 5 3 40 12 96
15 99 1 2 11 -11 22 -28 10 -17 22 -28 25 -24 4 3 7 2 7 -4 0 -10 49 -38 63
-35 4 1 7 -2 7 -6 0 -11 8 -12 89 -17 57 -3 72 0 130 30 75 37 95 58 141 141
30 55 33 67 35 162 3 102 -9 182 -26 182 -5 0 -9 3 -8 8 2 15 -14 52 -22 52
-5 0 -9 6 -9 13 0 22 -96 88 -137 94 -135 20 -225 -5 -286 -79 l-27 -32 0 207
c0 114 -3 207 -7 208 -37 4 -62 4 -84 -1z m347 -402 c4 -5 15 -8 24 -8 15 0
39 -19 65 -52 30 -37 49 -98 51 -165 2 -69 -11 -143 -27 -143 -4 0 -9 -10 -13
-22 -6 -27 -67 -77 -99 -84 -99 -19 -172 5 -220 75 -31 44 -32 51 -34 150 -1
79 2 112 14 135 29 57 58 88 96 105 38 18 128 23 143 9z"/>
<path d="M805 3790 l-40 -5 1 -190 c0 -104 -3 -192 -7 -195 -5 -4 -412 -5
-440 -1 -4 1 -6 89 -5 196 l1 196 -60 -3 -60 -3 0 -462 c0 -255 2 -464 5 -464
3 -1 29 -2 58 -3 61 -2 54 -34 55 247 0 183 0 187 21 188 27 1 419 1 426 0 3
-1 5 -91 5 -202 0 -110 3 -208 6 -218 6 -13 18 -17 60 -16 l54 1 0 463 c0 455
0 464 -20 470 -11 4 -38 4 -60 1z"/>
<path d="M3423 3764 c-27 -31 -29 -60 -5 -95 13 -21 24 -26 52 -25 51 3 64 9
76 34 17 37 5 81 -27 97 -41 22 -71 18 -96 -11z"/>
<path d="M3742 3323 l3 -468 58 0 c50 0 57 2 58 20 0 11 1 109 1 218 l0 197
54 1 c30 0 129 0 222 1 l167 0 3 -216 c1 -119 6 -217 10 -217 4 -1 31 -2 60
-3 52 -2 52 -2 53 28 0 17 1 227 1 466 l1 435 -61 3 -62 3 -2 -197 -3 -198
-210 1 c-115 1 -215 2 -221 2 -8 1 -11 57 -11 194 l1 192 -62 3 -62 3 2 -468z"/>
<path d="M1310 3532 c-44 -6 -90 -23 -90 -33 0 -6 -4 -8 -9 -5 -10 7 -101 -75
-101 -92 0 -7 -3 -12 -8 -12 -10 0 -29 -46 -41 -100 -10 -44 -8 -183 3 -228 7
-29 44 -92 68 -113 10 -9 15 -19 11 -23 -3 -3 1 -6 10 -6 9 0 17 -4 17 -8 0
-8 94 -57 109 -57 3 0 11 -3 16 -6 10 -6 111 -4 150 3 76 14 197 107 211 163
3 14 10 25 16 25 5 0 8 6 7 13 -1 6 2 21 7 32 9 20 11 188 2 215 -2 8 -12 32
-21 53 -9 20 -16 40 -16 42 -1 14 -69 78 -105 99 -58 33 -157 50 -236 38z
m132 -101 c35 -12 98 -73 98 -95 0 -6 6 -23 14 -38 16 -30 32 -143 19 -135 -4
3 -9 -11 -10 -31 -4 -54 -5 -62 -15 -62 -4 0 -8 -7 -8 -15 0 -27 -70 -94 -109
-105 -75 -20 -143 -2 -193 52 -78 83 -86 266 -17 361 57 78 128 100 221 68z"/>
<path d="M3416 3520 c-2 -3 -3 -153 -2 -335 l1 -329 48 1 c26 0 53 1 60 2 10
1 12 73 12 334 l0 332 -58 0 c-32 1 -60 -2 -61 -5z"/>
<path d="M4652 3516 c-9 -12 -7 -428 3 -490 10 -69 85 -158 145 -174 36 -9
130 -10 135 -2 4 6 13 10 22 10 8 0 26 9 40 20 14 11 29 18 33 15 5 -3 18 11
30 30 21 33 23 35 35 18 9 -13 10 -22 3 -30 -7 -9 -7 -13 0 -13 6 0 9 -9 7
-20 -2 -11 2 -21 8 -21 68 -8 101 -3 91 12 -3 5 -1 9 5 9 6 0 7 11 2 28 -4 15
-7 159 -6 320 0 326 6 301 -75 298 l-45 -1 -3 -210 c-1 -116 -2 -219 -3 -230
0 -11 -7 -27 -16 -37 -9 -10 -12 -18 -8 -18 5 0 -2 -11 -15 -25 -13 -14 -29
-25 -36 -25 -7 0 -14 -5 -16 -11 -5 -14 -80 -21 -123 -12 -18 3 -44 22 -65 46
-19 23 -28 37 -20 32 13 -8 13 -7 1 8 -7 9 -10 17 -6 17 4 0 3 6 -2 13 -5 6
-9 111 -8 232 l0 220 -53 1 c-28 1 -56 -4 -60 -10z"/>
<path d="M6172 3013 c-12 -2 -30 -16 -39 -30 -18 -28 -27 -83 -13 -83 5 0 12
-9 15 -20 3 -11 13 -20 21 -20 8 0 14 -4 14 -10 0 -5 9 -10 20 -10 34 0 68 22
80 51 14 32 6 91 -13 107 -16 14 -56 21 -85 15z"/>
<path d="M60 2253 c0 -101 3 -183 8 -184 4 0 1226 -1 2717 -2 l2710 -2 -1
-362 c0 -200 1 -363 3 -363 4 0 130 98 149 115 6 5 28 24 49 40 20 17 45 37
54 46 9 9 30 24 48 34 18 10 30 22 27 27 -3 4 -1 8 4 8 8 0 83 57 142 107 8 7
35 29 60 48 64 51 96 77 122 100 13 11 41 33 63 50 21 16 47 36 57 45 10 8 30
25 45 37 15 13 42 35 58 50 l30 28 -1 173 c-1 95 -5 176 -8 180 -4 4 -1432 7
-3172 7 l-3164 0 0 -182z"/>
</g>
</svg>
